<?xml version="1.0" encoding="iso-8859-1"?>
<!-- Generator: Adobe Illustrator 19.0.0, SVG Export Plug-In . SVG Version: 6.00 Build 0)  -->
<svg version="1.1" id="Layer_1" xmlns="http://www.w3.org/2000/svg" xmlns:xlink="http://www.w3.org/1999/xlink" x="0px" y="0px"
	 viewBox="0 0 512 512" style="enable-background:new 0 0 512 512;" xml:space="preserve">
<polygon style="fill:#F4B2B0;" points="358.95,223.515 282.442,223.515 218.687,223.515 138.125,223.515 138.125,177.157 
	15.539,256 138.125,334.843 138.125,288.485 358.95,288.485 "/>
<g>
	<path style="fill:#B3404A;" d="M138.125,350.382c-2.931,0-5.853-0.828-8.405-2.469L7.134,269.07C2.687,266.209,0,261.286,0,256
		c0-5.286,2.687-10.209,7.134-13.07l122.586-78.843c4.78-3.075,10.862-3.294,15.849-0.57c4.989,2.724,8.094,7.954,8.094,13.64
		v30.819H358.95c8.58,0,15.539,6.957,15.539,15.539v64.97c0,8.582-6.958,15.539-15.539,15.539H153.664v30.819
		c0,5.686-3.105,10.916-8.094,13.64C143.245,349.751,140.681,350.382,138.125,350.382z M44.264,256l78.321,50.375v-17.89
		c0-8.582,6.958-15.539,15.539-15.539H343.41v-33.893H138.125c-8.58,0-15.539-6.957-15.539-15.539v-17.89L44.264,256z"/>
	<path style="fill:#B3404A;" d="M496.461,496.994H135.162c-8.58,0-15.539-6.957-15.539-15.539v-78.61
		c0-8.582,6.958-15.539,15.539-15.539s15.539,6.957,15.539,15.539v63.072h330.222V46.083H150.7v63.072
		c0,8.582-6.958,15.539-15.539,15.539s-15.539-6.957-15.539-15.539v-78.61c0-8.582,6.958-15.539,15.539-15.539h361.299
		c8.58,0,15.539,6.957,15.539,15.539v450.913C512,490.038,505.042,496.994,496.461,496.994z"/>
</g>
<g>
</g>
<g>
</g>
<g>
</g>
<g>
</g>
<g>
</g>
<g>
</g>
<g>
</g>
<g>
</g>
<g>
</g>
<g>
</g>
<g>
</g>
<g>
</g>
<g>
</g>
<g>
</g>
<g>
</g>
</svg>
